<?xml version="1.0" encoding="UTF-8" standalone="no"?>
<!DOCTYPE svg PUBLIC "-//W3C//DTD SVG 1.0//EN" "http://www.w3.org/TR/2001/REC-SVG-20010904/DTD/svg10.dtd">
<!-- Generated by Microsoft Visio 11.0, SVG Export, v1.0 graphlytic_logo.svg Page-1 -->
<svg xmlns="http://www.w3.org/2000/svg" xmlns:v="http://schemas.microsoft.com/visio/2003/SVGExtensions/" width="3.78619in"
		height="3.78619in" viewBox="0 0 272.606 272.606" xml:space="preserve" color-interpolation-filters="sRGB" class="st4">
	<v:documentProperties v:langID="1033" v:metric="true" v:viewMarkup="false"/>

	<style type="text/css">
	<![CDATA[
		.st1 {fill:#1d8ece;stroke:none;stroke-linecap:round;stroke-linejoin:round;stroke-width:0.24}
		.st2 {stroke:#ffffff;stroke-linecap:round;stroke-linejoin:round;stroke-width:11.3386}
		.st3 {fill:#1d8ece;stroke:#ffffff;stroke-linecap:round;stroke-linejoin:round;stroke-width:11.3386}
		.st4 {fill:none;fill-rule:evenodd;font-size:12;overflow:visible;stroke-linecap:square;stroke-miterlimit:3}
	]]>
	</style>

	<g v:mID="0" v:index="1" v:groupContext="foregroundPage">
		<title>Page-1</title>
		<v:pageProperties v:drawingScale="0.0393701" v:pageScale="0.0393701" v:drawingUnits="24" v:shadowOffsetX="8.50394"
				v:shadowOffsetY="-8.50394"/>
		<v:layer v:name="Connector" v:index="0"/>
		<g id="group32-1" transform="translate(0.24,-0.24)" v:mID="32" v:groupContext="group">
			<title>Sheet.32</title>
			<g id="shape33-2" v:mID="33" v:groupContext="shape">
				<title>Circle.598</title>
				<v:userDefs>
					<v:ud v:nameU="visVersion" v:val="VT0(12):26"/>
				</v:userDefs>
				<path d="M0 136.54 A136.063 136.063 0 0 1 272.13 136.54 A136.063 136.063 0 0 1 0 136.54 Z" class="st1"/>
			</g>
			<g id="group34-4" transform="translate(56.6929,-43.1496)" v:mID="34" v:groupContext="group">
				<title>Sheet.34</title>
				<g id="shape35-5" v:mID="35" v:groupContext="shape" v:layerMember="0" transform="translate(70.2499,-25.8815)">
					<title>Dynamic connector.592</title>
					<path d="M0 272.61 L73.95 183.87" class="st2"/>
				</g>
				<g id="shape36-8" v:mID="36" v:groupContext="shape" v:layerMember="0" transform="translate(70.2499,-25.8815)">
					<title>Dynamic connector.593</title>
					<path d="M0 272.61 L-44.37 154.29" class="st2"/>
				</g>
				<g id="shape37-11" v:mID="37" v:groupContext="shape" v:layerMember="0" transform="translate(25.8815,-144.197)">
					<title>Dynamic connector.594</title>
					<path d="M0 272.61 L118.32 302.18" class="st2"/>
				</g>
				<g id="shape38-14" v:mID="38" v:groupContext="shape" transform="translate(9.99201E-014,-118.316)">
					<title>Circle.595</title>
					<v:userDefs>
						<v:ud v:nameU="visVersion" v:val="VT0(12):26"/>
					</v:userDefs>
					<path d="M0 246.72 A25.8815 25.8815 0 1 1 51.76 246.72 A25.8815 25.8815 0 0 1 0 246.72 Z" class="st3"/>
				</g>
				<g id="shape39-16" v:mID="39" v:groupContext="shape" transform="translate(44.3684,1.13687E-013)">
					<title>Circle.596</title>
					<v:userDefs>
						<v:ud v:nameU="visVersion" v:val="VT0(12):26"/>
					</v:userDefs>
					<path d="M0 246.72 A25.8815 25.8815 0 1 1 51.76 246.72 A25.8815 25.8815 0 0 1 0 246.72 Z" class="st3"/>
				</g>
				<g id="shape40-18" v:mID="40" v:groupContext="shape" transform="translate(118.316,-88.7367)">
					<title>Circle.597</title>
					<v:userDefs>
						<v:ud v:nameU="visVersion" v:val="VT0(12):26"/>
					</v:userDefs>
					<path d="M0 246.72 A25.8815 25.8815 0 1 1 51.76 246.72 A25.8815 25.8815 0 0 1 0 246.72 Z" class="st3"/>
				</g>
			</g>
		</g>
	</g>
</svg>
