<?xml version="1.0" encoding="utf-8"?>
<!-- Generator: Adobe Illustrator 25.2.1, SVG Export Plug-In . SVG Version: 6.00 Build 0)  -->
<svg version="1.1" id="Layer_1" xmlns="http://www.w3.org/2000/svg" xmlns:xlink="http://www.w3.org/1999/xlink" x="0px" y="0px"
	 viewBox="0 0 45.3 45.3" style="enable-background:new 0 0 45.3 45.3;" xml:space="preserve">
<style type="text/css">
	.st0{fill:#018BFF;}
	.st1{fill:#FFFFFF;}
</style>
<g>
	<path class="st0" d="M32.5,45.3H12.8C5.8,45.3,0,39.6,0,32.5V12.8C0,5.8,5.8,0,12.8,0h19.7c7,0,12.8,5.8,12.8,12.8v19.7
		C45.4,39.6,39.6,45.3,32.5,45.3z"/>
	<g>
		<path class="st1" d="M20.6,9.1c1.2-1,3-1,4.2,0c1.5,1.3,2.2,4.1,0.3,8.4c-0.7-0.4-1.6-0.6-2.4-0.6c-0.9,0-1.7,0.2-2.4,0.6
			C18.3,13.1,19.1,10.3,20.6,9.1z M9.8,17.7c-0.3-1.6,0.6-3.1,2.1-3.7c1.8-0.7,4.6,0.1,7.5,3.9c-1.4,1-2.3,2.5-2.4,4.2
			C12.3,21.7,10.2,19.6,9.8,17.7z M12,31.3c-1.5-0.5-2.4-2.1-2.1-3.7c0.3-1.9,2.4-4,7.1-4.5c0.1,1.8,1.1,3.3,2.4,4.2
			C16.6,31.2,13.8,32,12,31.3z M24.8,36.3c-1.2,1-3,1-4.2,0c-1.5-1.3-2.2-4.1-0.3-8.4c0.7,0.4,1.6,0.6,2.4,0.6s1.7-0.2,2.4-0.6
			C27,32.2,26.3,35,24.8,36.3z M35.5,27.6c0.3,1.6-0.6,3.1-2.1,3.7c-1.8,0.7-4.6-0.1-7.5-3.9c1.4-1,2.3-2.5,2.4-4.2
			C33.1,23.7,35.2,25.7,35.5,27.6z M28.4,22.2c-0.1-1.8-1.1-3.3-2.4-4.2c2.8-3.8,5.6-4.6,7.5-3.9c1.5,0.5,2.4,2.1,2.1,3.7
			C35.2,19.6,33.1,21.7,28.4,22.2z"/>
		<path class="st1" d="M22.7,28.4c-0.9,0-1.7-0.2-2.4-0.6c-1.9,4.4-1.2,7.2,0.3,8.4c1.2,1,3,1,4.2,0c1.5-1.3,2.2-4.1,0.3-8.4
			C24.4,28.2,23.6,28.4,22.7,28.4z"/>
		<path class="st1" d="M33.4,14c-1.8-0.7-4.6,0.1-7.5,3.9c1.4,1,2.3,2.5,2.4,4.2c4.7-0.6,6.8-2.6,7.1-4.5
			C35.8,16.1,34.9,14.6,33.4,14z"/>
		<path class="st1" d="M25.9,27.4c2.8,3.8,5.6,4.6,7.5,3.9c1.5-0.5,2.4-2.1,2.1-3.7c-0.3-1.9-2.4-4-7.1-4.5
			C28.2,24.9,27.3,26.4,25.9,27.4z"/>
		<path class="st1" d="M19.4,18c-2.8-3.8-5.6-4.6-7.5-3.9c-1.5,0.5-2.4,2.1-2.1,3.7c0.3,1.9,2.4,4,7.1,4.5
			C17.1,20.5,18,18.9,19.4,18z"/>
		<path class="st1" d="M22.7,16.9c0.9,0,1.7,0.2,2.4,0.6c1.9-4.4,1.2-7.2-0.3-8.4c-1.2-1-3-1-4.2,0c-1.5,1.3-2.2,4.1-0.3,8.4
			C21,17.1,21.8,16.9,22.7,16.9z"/>
		<path class="st1" d="M17,23.1c-4.7,0.6-6.8,2.6-7.1,4.5c-0.3,1.6,0.6,3.1,2.1,3.7c1.8,0.7,4.6-0.1,7.5-3.9
			C18,26.4,17.1,24.9,17,23.1z"/>
	</g>
</g>
</svg>
